<svg width="56" height="56" viewBox="0 0 56 56" fill="none" xmlns="http://www.w3.org/2000/svg">
<path d="M17.5 35.2034V36C17.5 36.9815 17.7668 37.9446 18.2717 38.7862L18.6258 39.3763C18.8747 39.7912 19.1613 40.1824 19.4818 40.5449L19.5304 40.5998C20.3465 41.5227 21.3494 42.2617 22.4726 42.7678L22.9885 43.0002C24.4512 43.6592 26.0373 44 27.6416 44H27.777C29.3579 44 30.923 43.6865 32.382 43.0777L33.5212 42.6024C34.118 42.3533 34.6808 42.0295 35.1961 41.6388C36.372 40.7472 37.2646 39.5343 37.7663 38.1466L38 37.5L38.2399 36.5406C38.4098 35.861 38.3823 35.147 38.1608 34.4825L38.0926 34.2779C38.0333 34.0999 37.9058 33.9529 37.738 33.869C37.2633 33.6317 36.7169 33.5809 36.2066 33.7267L33.5 34.5L31.1251 35.0937C28.7643 35.6839 26.2798 35.5424 24.0012 34.688L23.5 34.5L20.7685 33.5L20.0851 33.2909C18.7997 32.8976 17.5 33.8591 17.5 35.2034Z" stroke="#1C274C" stroke-width="2" stroke-linecap="round"/>
<path d="M35 28C36.2887 28 37.3333 26.433 37.3333 24.5C37.3333 22.567 36.2887 21 35 21C33.7113 21 32.6667 22.567 32.6667 24.5C32.6667 26.433 33.7113 28 35 28Z" fill="#1C274C"/>
<path d="M21 28C22.2887 28 23.3333 26.433 23.3333 24.5C23.3333 22.567 22.2887 21 21 21C19.7113 21 18.6667 22.567 18.6667 24.5C18.6667 26.433 19.7113 28 21 28Z" fill="#1C274C"/>
<path d="M4.66666 28C4.66666 17.0005 4.66666 11.5008 8.08375 8.08372C11.5008 4.66663 17.0005 4.66663 28 4.66663C38.9993 4.66663 44.4992 4.66663 47.9162 8.08372C51.3333 11.5008 51.3333 17.0005 51.3333 28C51.3333 38.9993 51.3333 44.4992 47.9162 47.9161C44.4992 51.3333 38.9993 51.3333 28 51.3333C17.0005 51.3333 11.5008 51.3333 8.08375 47.9161C4.66666 44.4992 4.66666 38.9993 4.66666 28Z" stroke="#1C274C" stroke-width="2"/>
</svg>
