<svg width="57" height="56" viewBox="0 0 57 56" fill="none" xmlns="http://www.w3.org/2000/svg">
<path d="M21.5 37.3334C23.4842 38.8041 25.8974 39.6667 28.5 39.6667C31.1026 39.6667 33.5157 38.8041 35.5 37.3334" stroke="#1C274C" stroke-width="2" stroke-linecap="round"/>
<path d="M35.5 28C36.7887 28 37.8334 26.433 37.8334 24.5C37.8334 22.567 36.7887 21 35.5 21C34.2114 21 33.1667 22.567 33.1667 24.5C33.1667 26.433 34.2114 28 35.5 28Z" fill="#1C274C"/>
<path d="M21.5 28C22.7887 28 23.8334 26.433 23.8334 24.5C23.8334 22.567 22.7887 21 21.5 21C20.2114 21 19.1667 22.567 19.1667 24.5C19.1667 26.433 20.2114 28 21.5 28Z" fill="#1C274C"/>
<path d="M5.16669 28C5.16669 17.0005 5.16669 11.5008 8.58378 8.08372C12.0009 4.66663 17.5006 4.66663 28.5 4.66663C39.4994 4.66663 44.9993 4.66663 48.4162 8.08372C51.8334 11.5008 51.8334 17.0005 51.8334 28C51.8334 38.9993 51.8334 44.4992 48.4162 47.9161C44.9993 51.3333 39.4994 51.3333 28.5 51.3333C17.5006 51.3333 12.0009 51.3333 8.58378 47.9161C5.16669 44.4992 5.16669 38.9993 5.16669 28Z" stroke="#1C274C" stroke-width="2"/>
</svg>
