<svg width="56" height="56" viewBox="0 0 56 56" fill="none" xmlns="http://www.w3.org/2000/svg">
<path d="M21 37.3334C23.3333 37.3334 25.3974 37.3334 28 37.3334C30.6026 37.3334 32.6667 37.3334 35 37.3334" stroke="#1C274C" stroke-width="2" stroke-linecap="round"/>
<path d="M35 28C36.2887 28 37.3334 26.433 37.3334 24.5C37.3334 22.567 36.2887 21 35 21C33.7114 21 32.6667 22.567 32.6667 24.5C32.6667 26.433 33.7114 28 35 28Z" fill="#1C274C"/>
<path d="M21 28C22.2887 28 23.3334 26.433 23.3334 24.5C23.3334 22.567 22.2887 21 21 21C19.7114 21 18.6667 22.567 18.6667 24.5C18.6667 26.433 19.7114 28 21 28Z" fill="#1C274C"/>
<path d="M4.66669 28C4.66669 17.0005 4.66669 11.5008 8.08378 8.08372C11.5009 4.66663 17.0006 4.66663 28 4.66663C38.9994 4.66663 44.4993 4.66663 47.9162 8.08372C51.3334 11.5008 51.3334 17.0005 51.3334 28C51.3334 38.9993 51.3334 44.4992 47.9162 47.9161C44.4993 51.3333 38.9994 51.3333 28 51.3333C17.0006 51.3333 11.5009 51.3333 8.08378 47.9161C4.66669 44.4992 4.66669 38.9993 4.66669 28Z" stroke="#1C274C" stroke-width="2"/>
</svg>
