<svg width="56" height="56" viewBox="0 0 56 56" fill="none" xmlns="http://www.w3.org/2000/svg">
<path d="M21.5 39.6667C23.4842 38.196 25.8974 37.3334 28.5 37.3334C31.1026 37.3334 33.5157 38.196 35.5 39.6667" stroke="#1C274C" stroke-width="2" stroke-linecap="round"/>
<path d="M18.0452 28.7813V28.7813C19.4177 29.2258 20.9222 28.7781 21.8285 27.6556L22.1906 27.2072" stroke="#1C274C" stroke-width="2" stroke-linecap="round"/>
<path d="M34.027 27.1257V27.1257C34.6502 28.3646 35.9971 29.0648 37.3691 28.8633L37.911 28.7837" stroke="#1C274C" stroke-width="2" stroke-linecap="round"/>
<path d="M4.66669 28C4.66669 17.0005 4.66669 11.5008 8.08378 8.08372C11.5009 4.66663 17.0006 4.66663 28 4.66663C38.9994 4.66663 44.4993 4.66663 47.9162 8.08372C51.3334 11.5008 51.3334 17.0005 51.3334 28C51.3334 38.9993 51.3334 44.4992 47.9162 47.9161C44.4993 51.3333 38.9994 51.3333 28 51.3333C17.0006 51.3333 11.5009 51.3333 8.08378 47.9161C4.66669 44.4992 4.66669 38.9993 4.66669 28Z" stroke="#1C274C" stroke-width="2"/>
</svg>
