<svg width="500" height="500" viewBox="0 0 500 500" fill="none" xmlns="http://www.w3.org/2000/svg">
<g clip-path="url(#clip0_49593_147827)">
<path d="M500 0H0V500H500V0Z" fill="white"/>
<mask id="mask0_49593_147827" style="mask-type:luminance" maskUnits="userSpaceOnUse" x="0" y="0" width="500" height="500">
<path d="M500 0H0V500H500V0Z" fill="white"/>
</mask>
<g mask="url(#mask0_49593_147827)">
<path d="M-43.6016 441.096C-43.6016 441.096 13.0534 394.736 132.011 418.751C185.356 429.52 339.022 434.389 350.936 420.24C362.85 406.092 167.009 397.156 152.861 408.326C138.713 419.496 311.961 417.864 331.576 402.369C344.081 392.49 317.339 380.984 309.221 385.043C301.103 389.102 323.427 396.141 331.752 385.828C338.468 377.509 347.189 276.125 330.529 266.071C306.951 251.844 289.724 265.923 307.399 271.599C322.439 276.429 341.03 269.859 338.13 253.624C335.23 237.389 305.659 237.968 303.34 246.086C301.021 254.204 331.752 249.565 335.231 237.388C338.71 225.211 336.14 123.974 330.572 121.146C310.923 111.166 172.296 109.244 159.54 116.782C146.783 124.32 338.753 124.312 347.451 119.094C356.149 113.876 352.09 98.8002 345.711 96.4802C339.8 94.3312 185.831 91.1452 156.274 96.3972C153.54 96.8832 151.399 99.0142 150.956 101.755C150.106 107.016 149.291 116.212 152.834 120.976C154.503 123.22 158.271 124.191 161.668 124.597C165.351 125.038 168.007 128.338 167.736 132.038C165.885 157.319 160.29 240.862 166.65 247.498C174.152 255.326 196.66 254.674 197.964 251.086C199.269 247.498 168.36 242.137 162.489 254.858C156.618 267.58 168.933 276.203 184.591 274.572C200.248 272.941 201.879 268.048 187.527 267.722C173.175 267.396 168.608 271.31 165.998 282.074C163.388 292.838 159.358 380.013 167.152 384.343C174.946 388.673 197.03 386.508 191.401 382.178C185.772 377.848 165.206 379.636 164.773 389.595C164.34 399.554 284.932 404.695 295.757 395.601C306.582 386.508 315.243 334.979 283.633 296.441C252.023 257.903 255.021 257.337 265.013 246.644C291.164 218.659 322.787 178.151 301.419 137.629C299.487 133.965 295.903 131.464 291.815 130.799C287.723 130.133 281.272 129.502 271.235 129.345C247.968 128.981 209.068 128.981 202.524 133.708C195.98 138.434 188.346 178.061 203.978 205.327C219.61 232.593 249.785 244.59 245.059 261.314C240.892 276.06 191.902 312.506 198.698 361.798C200.404 374.173 209.69 384.148 221.881 386.873C235.555 389.929 255.805 393.39 276.686 392.307C306.773 390.746 298.905 373.441 281.446 364.251C277.004 361.913 251.6 347.892 248.721 314.169C245.842 280.446 258.591 263.997 252.011 246.724C245.431 229.451 217.466 221.227 212.531 206.01C207.596 190.793 235.972 191.616 251.6 197.785C267.227 203.954 279.565 187.504 289.846 187.093C300.127 186.682 294.781 200.664 273.396 226.573C252.011 252.482 247.076 248.78 246.253 279.624C245.431 310.468 255.301 324.45 245.842 335.965C236.383 347.48 213.513 337.783 198.137 354.882C189.059 364.978 193.232 386.96 214.28 392.28C249.204 401.107 319.415 392.493 352.059 398.037C423.344 410.143 459.472 445.3 515.321 422.17" stroke="#A881EA" stroke-miterlimit="10" stroke-linecap="round" stroke-linejoin="round"/>
</g>
</g>
<defs>
<clipPath id="clip0_49593_147827">
<rect width="500" height="500" fill="white"/>
</clipPath>
</defs>
</svg>
